<?xml version="1.0" encoding="UTF-8" standalone="no"?>
<svg
   xmlns:dc="http://purl.org/dc/elements/1.1/"
   xmlns:cc="http://creativecommons.org/ns#"
   xmlns:rdf="http://www.w3.org/1999/02/22-rdf-syntax-ns#"
   xmlns:svg="http://www.w3.org/2000/svg"
   xmlns="http://www.w3.org/2000/svg"
   viewBox="0 0 657.33331 112"
   height="112"
   width="657.33331"
   xml:space="preserve"
   id="svg2"
   version="1.1"><metadata
     id="metadata8"><rdf:RDF><cc:Work
         rdf:about=""><dc:format>image/svg+xml</dc:format><dc:type
           rdf:resource="http://purl.org/dc/dcmitype/StillImage" /></cc:Work></rdf:RDF></metadata><defs
     id="defs6"><clipPath
       id="clipPath18"
       clipPathUnits="userSpaceOnUse"><path
         id="path16"
         d="M 0,84 H 493 V 0 H 0 Z" /></clipPath></defs><g
     transform="matrix(1.3333333,0,0,-1.3333333,0,112)"
     id="g10"><g
       id="g12"><g
         clip-path="url(#clipPath18)"
         id="g14"><g
           transform="translate(274.2549,78.8633)"
           id="g20"><path
             id="path22"
             style="fill:#ffffff;fill-opacity:1;fill-rule:nonzero;stroke:none"
             d="m 0,0 c 4.113,-0.743 8.673,-1.756 13.982,-4.28 0.151,-6.525 0.326,-10.711 0.449,-15.796 0.262,-10.805 -2.509,-18.663 -6.167,-26.994 -3.777,-8.599 -10.016,-15.928 -13.909,-19.665 -3.813,-3.664 -10.638,-8.45 -10.638,-8.45 0,0 -6.805,4.786 -10.618,8.45 -3.892,3.737 -10.131,11.066 -13.909,19.665 -3.657,8.331 -6.429,16.189 -6.169,26.994 0.124,5.085 0.3,9.271 0.449,15.796 5.309,2.524 10.771,3.736 13.984,4.28 C -21.069,1.945 -10.751,1.945 0,0" /></g><g
           transform="translate(270.604,60.1641)"
           id="g24"><path
             id="path26"
             style="fill:#d32011;fill-opacity:1;fill-rule:nonzero;stroke:none"
             d="m 0,0 c 0.101,0.453 0.17,1.284 0.17,1.639 0,4.385 -3.633,7.634 -7.623,7.654 -1.83,0.01 -3.449,-0.745 -4.304,-1.278 -0.896,2.502 -3.278,4.544 -6.497,4.576 -3.305,0.034 -6.422,-2.682 -6.865,-6.028 -0.195,-1.479 0.181,-3.229 0.663,-4.119 -0.715,-0.497 -1.567,-1.071 -2.654,-2.535 -0.97,-1.306 -1.621,-2.776 -2.007,-4.33 -0.876,0.229 -7.242,1.876 -12.311,2.067 -0.013,-0.944 -0.02,-2.675 0.042,-4.064 5.687,-0.467 9.011,-1.291 11.771,-1.955 -0.02,-1.442 0.184,-3.058 0.333,-4.057 -1.313,0.329 -7.665,1.844 -11.722,2.011 0.985,-6.881 3.133,-12.202 5.515,-17.474 3.648,-8.068 9.353,-14.923 12.864,-18.402 3.604,-3.571 9.984,-8.151 9.984,-8.151 0,0 6.656,4.693 10.129,8.26 3.642,3.745 9.327,10.334 12.882,18.427 2.453,5.593 4.424,10.701 5.37,17.32 -3.006,-0.197 -7.715,-0.982 -11.063,-1.886 0.044,1.131 -0.05,2.851 -0.24,3.916 2.428,0.608 7.033,1.721 11.727,1.993 0.079,1.391 0.069,2.581 0.033,4.083 C 12.36,-2.595 7.604,-3.394 3.37,-4.586 2.756,-3.118 1.649,-1.327 0,0 m 3.983,19.452 c 4.195,-0.759 8.85,-1.794 14.268,-4.369 0.154,-6.657 0.332,-10.928 0.457,-16.118 0.269,-11.026 -2.561,-19.043 -6.294,-27.543 -3.852,-8.776 -10.221,-16.253 -14.19,-20.068 -3.893,-3.739 -10.857,-8.621 -10.857,-8.621 0,0 -6.945,4.882 -10.835,8.621 -3.972,3.815 -10.338,11.292 -14.191,20.068 -3.733,8.5 -6.562,16.517 -6.296,27.543 0.127,5.19 0.306,9.461 0.459,16.118 5.418,2.575 10.992,3.813 14.268,4.369 11.713,1.983 22.242,1.983 33.211,0" /></g><g
           transform="translate(252.3096,70.5635)"
           id="g28"><path
             id="path30"
             style="fill:#002c80;fill-opacity:1;fill-rule:nonzero;stroke:none"
             d="m 0,0 c -2.321,-0.006 -4.756,-1.854 -4.743,-4.749 0.008,-1.523 0.777,-3.071 2.158,-3.991 -1.268,-0.416 -3.181,-1.097 -4.721,-3.386 -1.18,-1.752 -2.271,-4.926 -1.746,-9.146 0.854,-6.855 3.54,-9.815 4.101,-10.57 v -14.132 c 0,-1.968 1.522,-3.657 3.648,-3.657 h 2.956 l 0.002,8.856 c -0.926,1.71 -1.925,3.192 -2.521,6.216 -0.503,2.556 -0.266,5.808 0.685,7.775 0.602,1.248 1.348,2.142 2.234,2.907 -0.354,0.644 -0.64,1.932 -0.64,2.694 0,2.401 0.831,5.353 3.574,7.253 0.883,0.61 2.369,1.216 3.539,1.599 0.551,0.181 0.612,0.612 0.286,0.874 -0.677,0.553 -1.357,1.441 -1.357,2.671 0,1.721 1.355,3.342 3.416,3.342 1.645,0 3.26,-1.395 3.26,-3.346 0,-0.779 -0.256,-1.769 -1.321,-2.643 -0.123,-0.139 -0.225,-0.272 -0.219,-0.461 0.008,-0.218 0.145,-0.332 0.318,-0.383 2.879,-0.876 5.526,-3.745 5.677,-8.995 0.089,-3.08 -0.372,-4.878 -0.956,-6.99 -0.582,-2.108 -1.609,-3.741 -2.082,-4.54 0,-2.118 0.008,-10.352 0.008,-13.181 0,-0.805 -0.694,-1.508 -1.489,-1.508 -0.876,0 -3.483,0.01 -3.483,0.01 0,0 0.002,6.306 0.002,7.312 0.849,0.955 2.583,3.848 2.81,7.22 0.24,3.58 -0.537,5.11 -1.186,6.195 -0.674,1.127 -2.192,1.951 -3.269,2.263 0.757,0.422 1.93,1.373 1.93,3.229 0,1.826 -1.417,3.652 -3.621,3.652 -1.873,0 -3.634,-1.534 -3.634,-3.666 0,-1.659 1.071,-2.776 1.93,-3.215 -0.839,-0.25 -2.156,-0.671 -3.263,-2.283 -1.087,-1.578 -1.45,-3.87 -1.202,-6.225 0.377,-3.561 2.037,-6.346 2.814,-7.19 v -13.033 c 0,-0.757 0.389,-1.464 1.486,-1.486 1.317,-0.024 2.545,-0.024 3.703,0 1.054,0.022 1.506,0.638 1.506,1.486 0,1.639 -0.006,3.591 -0.006,3.591 0,0 2.776,-0.002 3.486,-0.002 1.788,0 3.697,1.488 3.697,3.646 0,0.979 -0.008,9.209 -0.008,12.589 1.141,2.006 1.693,3.383 2.315,5.891 0.62,2.494 1.166,5.158 0.363,9.142 -0.951,4.707 -3.756,6.487 -4.72,7.119 0.219,0.463 0.586,1.339 0.586,2.476 0,2.881 -2.39,5.484 -5.438,5.484 -3.07,0 -5.568,-2.458 -5.568,-5.508 0,-0.098 0.002,-0.342 0.032,-0.542 -0.79,0.238 -1.85,0.419 -2.859,0.477 0.588,0.369 2.285,1.893 2.285,4.132 C 4.755,-2.208 2.694,0.006 0,0" /></g><g
           transform="translate(13.4414,50.0586)"
           id="g32"><path
             id="path34"
             style="fill:#002c80;fill-opacity:1;fill-rule:nonzero;stroke:none"
             d="m 0,0 c -4.534,0 -7.638,3.102 -7.638,7.638 0,4.725 3.343,7.826 8.02,7.826 1.528,0 2.722,-0.214 3.938,-0.715 l 0.286,0.715 H 5.681 L 5.442,10.763 H 4.391 l -0.405,2.052 c -0.978,1.004 -2.219,1.409 -3.557,1.409 -3.531,0 -5.034,-2.841 -5.034,-6.419 0,-3.39 1.718,-6.47 5.106,-6.47 1.862,0 3.318,0.765 4.534,2.1 L 5.8,2.458 C 4.296,0.787 2.434,0 0,0" /></g><g
           transform="translate(25.7949,59.5093)"
           id="g36"><path
             id="path38"
             style="fill:#002c80;fill-opacity:1;fill-rule:nonzero;stroke:none"
             d="M 0,0 C -1.48,0 -2.171,-1.433 -2.314,-2.935 H 1.862 C 1.862,-1.409 1.528,0 0,0 m -2.386,-4.01 v -0.286 c 0,-1.957 1.192,-3.747 3.054,-3.747 1.433,0 2.267,0.572 3.032,1.314 l 0.691,-0.79 C 3.173,-8.71 1.981,-9.356 0.072,-9.356 c -3.054,0 -5.202,1.909 -5.202,5.156 0,3.101 2.291,5.154 5.297,5.154 2.768,0 4.367,-1.693 4.367,-4.368 V -4.01 Z" /></g><g
           transform="translate(38.7207,50.4404)"
           id="g40"><path
             id="path42"
             style="fill:#002c80;fill-opacity:1;fill-rule:nonzero;stroke:none"
             d="M 0,0 V 0.858 L 1.433,1.145 V 8.067 C 1.027,8.472 0.62,8.591 0.024,8.591 -1.933,8.591 -2.601,6.539 -2.601,4.51 V 1.145 L -1.17,0.858 V 0 h -5.464 v 0.858 l 1.456,0.287 v 7.16 l -1.456,0.262 v 0.909 l 3.89,0.453 V 7.686 l 0.096,-0.024 c 0.691,1.573 1.957,2.362 3.482,2.362 2.148,0 3.176,-1.385 3.176,-3.533 V 1.145 L 5.466,0.858 V 0 Z" /></g><g
           transform="translate(49.5942,50.1538)"
           id="g44"><path
             id="path46"
             style="fill:#002c80;fill-opacity:1;fill-rule:nonzero;stroke:none"
             d="m 0,0 c -1.767,0 -2.841,1.194 -2.841,2.958 v 5.776 h -1.55 v 0.909 l 1.599,0.572 1.502,3.199 h 1.028 V 9.976 H 2.672 V 8.734 H -0.262 V 3.485 c 0,-1.337 0.405,-2.052 1.504,-2.052 0.715,0 1.12,0.214 1.55,0.691 L 3.269,1.456 C 2.72,0.765 1.719,0 0,0" /></g><g
           transform="translate(61.4937,57.6953)"
           id="g48"><path
             id="path50"
             style="fill:#002c80;fill-opacity:1;fill-rule:nonzero;stroke:none"
             d="M 0,0 -2.029,0.979 C -3.006,0.572 -3.557,-0.548 -3.557,-2.219 V -6.11 l 2.291,-0.286 V -7.254 H -7.59 v 0.858 l 1.456,0.286 V 1.049 L -7.59,1.313 v 0.906 l 3.842,0.453 V 0.405 l 0.12,-0.048 c 0.739,1.838 1.766,2.411 2.839,2.411 0.527,0 1.17,-0.215 1.528,-0.596 z" /></g><g
           transform="translate(68.2617,59.5093)"
           id="g52"><path
             id="path54"
             style="fill:#002c80;fill-opacity:1;fill-rule:nonzero;stroke:none"
             d="M 0,0 C -1.479,0 -2.172,-1.433 -2.315,-2.935 H 1.862 C 1.862,-1.409 1.528,0 0,0 m -2.386,-4.01 v -0.286 c 0,-1.957 1.194,-3.747 3.053,-3.747 1.433,0 2.27,0.572 3.033,1.314 l 0.691,-0.79 c -1.216,-1.191 -2.41,-1.837 -4.32,-1.837 -3.053,0 -5.201,1.909 -5.201,5.156 0,3.101 2.291,5.154 5.297,5.154 2.77,0 4.367,-1.693 4.367,-4.368 V -4.01 Z" /></g><g
           transform="translate(88.8398,50.2012)"
           id="g56"><path
             id="path58"
             style="fill:#002c80;fill-opacity:1;fill-rule:nonzero;stroke:none"
             d="m 0,0 v 2.315 l -0.095,0.024 c -0.668,-1.481 -1.862,-2.386 -3.486,-2.386 -2.148,0 -3.172,1.384 -3.172,3.532 v 5.25 L -8.21,9.068 v 0.861 h 4.033 V 1.91 c 0.406,-0.406 0.835,-0.525 1.362,-0.525 1.981,0 2.672,2.029 2.672,4.081 V 8.782 L -1.719,9.068 V 9.929 H 2.434 V 1.576 L 3.89,1.313 V 0.405 Z" /></g><g
           transform="translate(100.7393,50.4404)"
           id="g60"><path
             id="path62"
             style="fill:#002c80;fill-opacity:1;fill-rule:nonzero;stroke:none"
             d="M 0,0 V 0.858 L 1.433,1.145 V 8.067 C 1.025,8.472 0.62,8.591 0.024,8.591 -1.934,8.591 -2.601,6.539 -2.601,4.51 V 1.145 L -1.17,0.858 V 0 h -5.465 v 0.858 l 1.457,0.287 v 7.16 l -1.457,0.262 v 0.909 l 3.891,0.453 V 7.686 l 0.095,-0.024 c 0.691,1.573 1.958,2.362 3.485,2.362 2.146,0 3.173,-1.385 3.173,-3.533 V 1.145 L 5.466,0.858 V 0 Z" /></g><g
           transform="translate(110.1567,62.3018)"
           id="g64"><path
             id="path66"
             style="fill:#002c80;fill-opacity:1;fill-rule:nonzero;stroke:none"
             d="m 0,0 c -0.86,0 -1.576,0.715 -1.576,1.576 0,0.858 0.716,1.575 1.576,1.575 0.858,0 1.576,-0.717 1.576,-1.575 C 1.576,0.715 0.858,0 0,0 m -2.577,-11.862 v 0.861 l 1.456,0.286 v 7.158 l -1.456,0.263 v 0.908 l 4.034,0.548 v -8.877 l 1.454,-0.286 v -0.861 z" /></g><g
           transform="translate(123.7505,58.9844)"
           id="g68"><path
             id="path70"
             style="fill:#002c80;fill-opacity:1;fill-rule:nonzero;stroke:none"
             d="M 0,0 -3.89,-8.925 H -4.939 L -8.83,0 -10.072,0.286 v 0.859 h 5.419 V 0.286 l -1.48,-0.238 2.338,-5.729 2.434,5.729 -1.574,0.238 V 1.145 H 1.218 V 0.262 Z" /></g><g
           transform="translate(130.5264,59.5093)"
           id="g72"><path
             id="path74"
             style="fill:#002c80;fill-opacity:1;fill-rule:nonzero;stroke:none"
             d="M 0,0 C -1.48,0 -2.172,-1.433 -2.315,-2.935 H 1.862 C 1.862,-1.409 1.528,0 0,0 m -2.386,-4.01 v -0.286 c 0,-1.957 1.192,-3.747 3.053,-3.747 1.433,0 2.268,0.572 3.033,1.314 l 0.691,-0.79 c -1.218,-1.191 -2.41,-1.837 -4.32,-1.837 -3.053,0 -5.203,1.909 -5.203,5.156 0,3.101 2.293,5.154 5.299,5.154 2.768,0 4.367,-1.693 4.367,-4.368 V -4.01 Z" /></g><g
           transform="translate(144.4062,57.6953)"
           id="g76"><path
             id="path78"
             style="fill:#002c80;fill-opacity:1;fill-rule:nonzero;stroke:none"
             d="M 0,0 -2.029,0.979 C -3.006,0.572 -3.555,-0.548 -3.555,-2.219 V -6.11 l 2.289,-0.286 V -7.254 H -7.59 v 0.858 l 1.456,0.286 V 1.049 L -7.59,1.313 v 0.906 l 3.842,0.453 V 0.405 l 0.12,-0.048 c 0.741,1.838 1.766,2.411 2.841,2.411 0.525,0 1.168,-0.215 1.526,-0.596 z" /></g><g
           transform="translate(149.9819,50.0347)"
           id="g80"><path
             id="path82"
             style="fill:#002c80;fill-opacity:1;fill-rule:nonzero;stroke:none"
             d="m 0,0 c -1.051,0 -1.886,0.31 -2.53,0.739 l -0.24,-0.62 h -0.811 l -0.095,3.366 0.906,0.072 c 0.288,-1.624 1.123,-2.506 2.746,-2.506 0.858,0 1.552,0.549 1.552,1.359 0,0.98 -0.67,1.242 -2.579,2.076 -1.359,0.597 -2.339,1.505 -2.339,2.959 0,1.862 1.528,2.984 3.39,2.984 0.954,0 1.647,-0.143 2.386,-0.572 l 0.286,0.572 H 3.435 L 3.342,7.254 H 2.434 C 2.267,8.639 1.695,9.476 0.286,9.476 c -0.858,0 -1.552,-0.455 -1.552,-1.314 0,-0.955 0.715,-1.194 2.412,-1.933 C 2.72,5.538 3.842,4.701 3.842,3.221 3.842,1.216 2.1,0 0,0" /></g><g
           transform="translate(158.2534,62.3018)"
           id="g84"><path
             id="path86"
             style="fill:#002c80;fill-opacity:1;fill-rule:nonzero;stroke:none"
             d="m 0,0 c -0.86,0 -1.576,0.715 -1.576,1.576 0,0.858 0.716,1.575 1.576,1.575 0.858,0 1.576,-0.717 1.576,-1.575 C 1.576,0.715 0.858,0 0,0 m -2.577,-11.862 v 0.861 l 1.456,0.286 v 7.158 l -1.456,0.263 v 0.908 l 4.031,0.548 v -8.877 l 1.457,-0.286 v -0.861 z" /></g><g
           transform="translate(166.7637,50.1538)"
           id="g88"><path
             id="path90"
             style="fill:#002c80;fill-opacity:1;fill-rule:nonzero;stroke:none"
             d="m 0,0 c -1.766,0 -2.839,1.194 -2.839,2.958 v 5.776 h -1.552 v 0.909 l 1.599,0.572 1.502,3.199 h 1.028 V 9.976 H 2.672 V 8.734 H -0.262 V 3.485 c 0,-1.337 0.405,-2.052 1.504,-2.052 0.715,0 1.12,0.214 1.55,0.691 L 3.271,1.456 C 2.72,0.765 1.719,0 0,0" /></g><g
           transform="translate(176.6348,55.3091)"
           id="g92"><path
             id="path94"
             style="fill:#002c80;fill-opacity:1;fill-rule:nonzero;stroke:none"
             d="m 0,0 -1.552,-0.31 c -1.025,-0.191 -1.719,-0.789 -1.719,-1.838 0,-0.908 0.766,-1.456 1.671,-1.456 0.573,0 1.195,0.31 1.6,0.717 z m 2.243,-5.156 c -1.025,0 -1.766,0.526 -2.1,1.432 -0.717,-0.691 -1.719,-1.432 -2.863,-1.432 -1.576,0 -2.889,1.027 -2.889,2.603 0,2.052 1.623,2.791 3.556,3.149 L 0,0.954 v 1.289 c 0,1.099 -0.429,1.671 -1.671,1.671 -1.122,0 -2.029,-0.62 -2.696,-1.528 l -0.837,0.908 c 1.123,1.311 2.291,1.908 4.107,1.908 2.387,0 3.674,-0.978 3.674,-2.983 v -4.558 c 0,-1.051 0.429,-1.289 0.908,-1.289 0.358,0 0.62,0.095 0.834,0.262 l 0.31,-0.692 C 4.034,-4.677 3.102,-5.156 2.243,-5.156" /></g><g
           transform="translate(184.668,62.3018)"
           id="g96"><path
             id="path98"
             style="fill:#002c80;fill-opacity:1;fill-rule:nonzero;stroke:none"
             d="m 0,0 c -0.858,0 -1.576,0.715 -1.576,1.576 0,0.858 0.718,1.575 1.576,1.575 0.86,0 1.575,-0.717 1.575,-1.575 C 1.575,0.715 0.86,0 0,0 m -2.577,-11.862 v 0.861 l 1.456,0.286 v 7.158 l -1.456,0.263 v 0.908 l 4.033,0.548 v -8.877 l 1.457,-0.286 v -0.861 z" /></g><g
           transform="translate(196.7344,57.6953)"
           id="g100"><path
             id="path102"
             style="fill:#002c80;fill-opacity:1;fill-rule:nonzero;stroke:none"
             d="M 0,0 -2.029,0.979 C -3.006,0.572 -3.557,-0.548 -3.557,-2.219 V -6.11 l 2.291,-0.286 V -7.254 H -7.59 v 0.858 l 1.456,0.286 V 1.049 L -7.59,1.313 v 0.906 l 3.842,0.453 V 0.405 l 0.12,-0.048 c 0.741,1.838 1.766,2.411 2.841,2.411 0.525,0 1.168,-0.215 1.526,-0.596 z" /></g><g
           transform="translate(203.5029,59.5093)"
           id="g104"><path
             id="path106"
             style="fill:#002c80;fill-opacity:1;fill-rule:nonzero;stroke:none"
             d="M 0,0 C -1.48,0 -2.171,-1.433 -2.314,-2.935 H 1.862 C 1.862,-1.409 1.528,0 0,0 m -2.386,-4.01 v -0.286 c 0,-1.957 1.192,-3.747 3.054,-3.747 1.432,0 2.267,0.572 3.032,1.314 l 0.691,-0.79 C 3.175,-8.71 1.981,-9.356 0.072,-9.356 c -3.054,0 -5.204,1.909 -5.204,5.156 0,3.101 2.291,5.154 5.299,5.154 2.768,0 4.367,-1.693 4.367,-4.368 V -4.01 Z" /></g><g
           transform="translate(56.7886,33.1099)"
           id="g108"><path
             id="path110"
             style="fill:#002c80;fill-opacity:1;fill-rule:nonzero;stroke:none"
             d="m 0,0 c -0.262,0.667 -1.17,1.29 -1.886,1.29 -2.1,0 -2.839,-1.957 -2.839,-4.058 0,-1.814 0.668,-3.819 2.482,-3.819 1.097,0 1.836,0.62 2.243,1.648 z m 0.143,-7.876 v 1.575 l -0.071,0.048 c -0.739,-1.075 -1.624,-1.671 -2.961,-1.671 -2.291,0 -4.51,1.599 -4.51,4.844 0,3.223 2.076,5.466 4.846,5.466 1.096,0 2.076,-0.334 2.553,-0.929 V 6.825 L -1.552,7.089 V 7.995 L 2.577,8.401 V -6.301 l 1.457,-0.262 v -0.908 z" /></g><g
           transform="translate(67.2803,34.5415)"
           id="g112"><path
             id="path114"
             style="fill:#002c80;fill-opacity:1;fill-rule:nonzero;stroke:none"
             d="M 0,0 C -1.48,0 -2.172,-1.433 -2.315,-2.935 H 1.861 C 1.861,-1.409 1.528,0 0,0 m -2.387,-4.01 v -0.286 c 0,-1.957 1.193,-3.747 3.054,-3.747 1.433,0 2.268,0.572 3.032,1.314 l 0.692,-0.79 C 3.173,-8.71 1.98,-9.354 0.071,-9.354 c -3.053,0 -5.203,1.907 -5.203,5.154 0,3.103 2.293,5.156 5.299,5.156 2.768,0 4.367,-1.695 4.367,-4.368 V -4.01 Z" /></g><g
           transform="translate(83.8242,25.0669)"
           id="g116"><path
             id="path118"
             style="fill:#002c80;fill-opacity:1;fill-rule:nonzero;stroke:none"
             d="M 0,0 C -1.049,0 -1.885,0.31 -2.529,0.739 L -2.768,0.119 H -3.58 l -0.096,3.366 0.908,0.072 c 0.287,-1.624 1.121,-2.508 2.744,-2.508 0.86,0 1.552,0.551 1.552,1.361 0,0.98 -0.668,1.242 -2.577,2.076 -1.361,0.597 -2.339,1.505 -2.339,2.961 0,1.86 1.526,2.982 3.388,2.982 0.956,0 1.647,-0.143 2.386,-0.572 l 0.286,0.572 H 3.438 L 3.342,7.254 H 2.434 C 2.267,8.639 1.695,9.476 0.286,9.476 c -0.858,0 -1.552,-0.455 -1.552,-1.314 0,-0.955 0.718,-1.194 2.412,-1.933 C 2.72,5.538 3.843,4.701 3.843,3.223 3.843,1.218 2.1,0 0,0" /></g><g
           transform="translate(95.0791,30.3413)"
           id="g120"><path
             id="path122"
             style="fill:#002c80;fill-opacity:1;fill-rule:nonzero;stroke:none"
             d="m 0,0 -1.552,-0.31 c -1.025,-0.19 -1.717,-0.789 -1.717,-1.838 0,-0.908 0.764,-1.456 1.669,-1.456 0.575,0 1.195,0.31 1.6,0.717 z m 2.243,-5.156 c -1.025,0 -1.766,0.527 -2.1,1.432 -0.715,-0.691 -1.719,-1.432 -2.863,-1.432 -1.576,0 -2.889,1.027 -2.889,2.603 0,2.053 1.623,2.792 3.557,3.149 L 0,0.954 V 2.243 C 0,3.34 -0.429,3.915 -1.671,3.915 -2.792,3.915 -3.7,3.294 -4.367,2.386 l -0.835,0.908 c 1.121,1.312 2.291,1.908 4.105,1.908 2.387,0 3.674,-0.978 3.674,-2.982 v -4.558 c 0,-1.052 0.431,-1.29 0.908,-1.29 0.358,0 0.62,0.095 0.835,0.262 L 4.629,-4.057 C 4.034,-4.677 3.102,-5.156 2.243,-5.156" /></g><g
           transform="translate(107.1699,25.4722)"
           id="g124"><path
             id="path126"
             style="fill:#002c80;fill-opacity:1;fill-rule:nonzero;stroke:none"
             d="M 0,0 V 0.86 L 1.433,1.146 V 8.067 C 1.025,8.472 0.62,8.591 0.024,8.591 -1.933,8.591 -2.601,6.539 -2.601,4.51 V 1.146 L -1.17,0.86 V 0 h -5.464 v 0.86 l 1.454,0.286 v 7.16 l -1.454,0.262 v 0.908 l 3.888,0.453 V 7.686 l 0.098,-0.024 c 0.691,1.575 1.957,2.362 3.482,2.362 2.148,0 3.176,-1.385 3.176,-3.533 V 1.146 L 5.464,0.86 V 0 Z" /></g><g
           transform="translate(118.043,25.1865)"
           id="g128"><path
             id="path130"
             style="fill:#002c80;fill-opacity:1;fill-rule:nonzero;stroke:none"
             d="m 0,0 c -1.767,0 -2.839,1.194 -2.839,2.958 v 5.776 h -1.552 v 0.909 l 1.599,0.571 1.502,3.198 h 1.028 V 9.976 H 2.672 V 8.734 H -0.262 V 3.483 c 0,-1.336 0.405,-2.051 1.504,-2.051 0.715,0 1.12,0.215 1.55,0.692 L 3.271,1.456 C 2.722,0.763 1.719,0 0,0" /></g><g
           transform="translate(126.291,36.4033)"
           id="g132"><path
             id="path134"
             style="fill:#002c80;fill-opacity:1;fill-rule:nonzero;stroke:none"
             d="M 0,0 -0.548,0.453 2.363,5.059 4.129,3.581 Z m 1.145,-1.862 c -1.478,0 -2.17,-1.432 -2.315,-2.934 h 4.176 c 0,1.525 -0.334,2.934 -1.861,2.934 m -2.387,-4.01 v -0.286 c 0,-1.957 1.195,-3.747 3.056,-3.747 1.431,0 2.268,0.572 3.03,1.314 l 0.694,-0.787 c -1.218,-1.194 -2.413,-1.838 -4.32,-1.838 -3.056,0 -5.203,1.907 -5.203,5.154 0,3.104 2.29,5.156 5.298,5.156 2.769,0 4.368,-1.695 4.368,-4.367 v -0.599 z" /></g><g
           transform="translate(153.79,25.4722)"
           id="g136"><path
             id="path138"
             style="fill:#002c80;fill-opacity:1;fill-rule:nonzero;stroke:none"
             d="M 0,0 V 0.956 L 1.838,1.242 1.216,11.91 -3.914,0 H -4.796 L -9.833,11.624 -10.406,1.29 -8.568,0.956 V 0 H -13.7 v 0.956 l 1.886,0.334 0.693,12.124 -1.885,0.334 v 0.953 H -8.21 L -3.604,4.01 1.027,14.701 H 5.776 V 13.748 L 3.867,13.461 4.606,1.242 6.491,0.956 V 0 Z" /></g><g
           transform="translate(166.4502,25.1865)"
           id="g140"><path
             id="path142"
             style="fill:#002c80;fill-opacity:1;fill-rule:nonzero;stroke:none"
             d="m 0,0 c -2.887,0 -5.106,1.838 -5.106,5.178 0,3.032 2.291,5.132 5.321,5.132 0.931,0 1.909,-0.143 2.674,-0.644 l 0.262,0.596 H 3.938 L 3.771,7.04 H 2.863 C 2.722,8.424 1.862,9.354 0.501,9.354 c -1.671,0 -2.863,-1.383 -2.863,-3.962 0,-2.481 1.265,-4.079 3.077,-4.079 1.147,0 2.077,0.382 2.866,1.24 L 4.272,1.766 C 3.056,0.5 1.743,0 0,0" /></g><g
           transform="translate(186.1807,30.3174)"
           id="g144"><path
             id="path146"
             style="fill:#002c80;fill-opacity:1;fill-rule:nonzero;stroke:none"
             d="m 0,0 v -3.747 c -1.145,-0.787 -3.388,-1.481 -5.919,-1.481 -4.82,0 -7.829,2.842 -7.829,7.662 0,4.773 3.367,7.805 8.139,7.805 1.337,0 2.937,-0.191 4.153,-0.718 l 0.286,0.718 h 1.027 l -0.19,-4.701 h -1.052 l -0.405,2.05 c -1.121,0.98 -2.291,1.409 -3.843,1.409 -3.626,0 -5.082,-2.839 -5.082,-6.539 0,-3.819 1.909,-6.396 5.344,-6.396 0.766,0 2.029,0.286 2.556,0.644 V 0 L -5.13,0.286 V 1.24 H 0.93 V 0.382 Z" /></g><g
           transform="translate(191.4937,37.334)"
           id="g148"><path
             id="path150"
             style="fill:#002c80;fill-opacity:1;fill-rule:nonzero;stroke:none"
             d="m 0,0 c -0.86,0 -1.576,0.715 -1.576,1.576 0,0.858 0.716,1.573 1.576,1.573 0.858,0 1.576,-0.715 1.576,-1.573 C 1.576,0.715 0.858,0 0,0 m -2.577,-11.862 v 0.861 l 1.454,0.286 v 7.158 l -1.454,0.263 v 0.908 l 4.034,0.548 v -8.877 l 1.454,-0.286 v -0.861 z" /></g><g
           transform="translate(195.8276,25.4722)"
           id="g152"><path
             id="path154"
             style="fill:#002c80;fill-opacity:1;fill-rule:nonzero;stroke:none"
             d="M 0,0 V 0.86 L 1.455,1.146 V 14.463 L 0,14.725 v 0.908 l 4.034,0.406 V 1.146 L 5.49,0.86 V 0 Z" /></g><g
           transform="translate(202.7393,25.4722)"
           id="g156"><path
             id="path158"
             style="fill:#002c80;fill-opacity:1;fill-rule:nonzero;stroke:none"
             d="M 0,0 V 0.86 L 1.456,1.146 V 14.463 L 0,14.725 v 0.908 l 4.033,0.406 V 1.146 L 5.49,0.86 V 0 Z" /></g><g
           transform="translate(320.6729,50.4404)"
           id="g160"><path
             id="path162"
             style="fill:#002c80;fill-opacity:1;fill-rule:nonzero;stroke:none"
             d="M 0,0 V 0.954 L 1.838,1.242 1.218,11.91 -3.914,0 H -4.796 L -9.833,11.622 -10.405,1.29 -8.567,0.954 V 0 H -13.7 v 0.954 l 1.886,0.336 0.693,12.124 -1.885,0.334 v 0.953 H -8.21 L -3.604,4.01 1.027,14.701 H 5.776 V 13.748 L 3.867,13.459 4.606,1.242 6.491,0.954 V 0 Z" /></g><g
           transform="translate(333.3809,50.1538)"
           id="g164"><path
             id="path166"
             style="fill:#002c80;fill-opacity:1;fill-rule:nonzero;stroke:none"
             d="m 0,0 c -2.889,0 -5.106,1.838 -5.106,5.18 0,3.03 2.291,5.13 5.321,5.13 0.93,0 1.909,-0.143 2.674,-0.644 l 0.262,0.596 H 3.938 L 3.771,7.04 H 2.863 C 2.722,8.424 1.862,9.356 0.501,9.356 c -1.671,0 -2.863,-1.385 -2.863,-3.961 0,-2.484 1.265,-4.082 3.077,-4.082 1.147,0 2.077,0.382 2.866,1.24 L 4.272,1.766 C 3.054,0.5 1.743,0 0,0" /></g><g
           transform="translate(353.1592,55.2852)"
           id="g168"><path
             id="path170"
             style="fill:#002c80;fill-opacity:1;fill-rule:nonzero;stroke:none"
             d="m 0,0 v -3.747 c -1.145,-0.787 -3.39,-1.481 -5.919,-1.481 -4.82,0 -7.829,2.842 -7.829,7.662 0,4.773 3.366,7.805 8.139,7.805 1.337,0 2.937,-0.191 4.152,-0.718 l 0.287,0.718 h 1.027 L -0.334,5.536 H -1.385 L -1.79,7.59 c -1.121,0.978 -2.291,1.407 -3.843,1.407 -3.628,0 -5.082,-2.839 -5.082,-6.539 0,-3.819 1.909,-6.396 5.344,-6.396 0.766,0 2.029,0.286 2.556,0.644 V 0 l -2.317,0.286 v 0.956 h 6.064 v -0.86 z" /></g><g
           transform="translate(358.5195,62.3018)"
           id="g172"><path
             id="path174"
             style="fill:#002c80;fill-opacity:1;fill-rule:nonzero;stroke:none"
             d="m 0,0 c -0.858,0 -1.576,0.715 -1.576,1.576 0,0.858 0.718,1.575 1.576,1.575 0.858,0 1.576,-0.717 1.576,-1.575 C 1.576,0.715 0.858,0 0,0 m -2.577,-11.862 v 0.861 l 1.454,0.286 v 7.158 l -1.454,0.263 v 0.908 l 4.033,0.548 v -8.877 l 1.455,-0.286 v -0.861 z" /></g><g
           transform="translate(362.9014,50.4404)"
           id="g176"><path
             id="path178"
             style="fill:#002c80;fill-opacity:1;fill-rule:nonzero;stroke:none"
             d="M 0,0 V 0.858 L 1.455,1.145 V 14.463 L 0,14.725 v 0.906 l 4.034,0.408 V 1.145 L 5.49,0.858 V 0 Z" /></g><g
           transform="translate(369.8608,50.4404)"
           id="g180"><path
             id="path182"
             style="fill:#002c80;fill-opacity:1;fill-rule:nonzero;stroke:none"
             d="M 0,0 V 0.858 L 1.455,1.145 V 14.463 L 0,14.725 v 0.906 l 4.033,0.408 V 1.145 L 5.49,0.858 V 0 Z" /></g><g
           transform="translate(397.2051,63.8047)"
           id="g184"><path
             id="path186"
             style="fill:#002c80;fill-opacity:1;fill-rule:nonzero;stroke:none"
             d="m 0,0 v -8.043 c 0,-3.819 -2.196,-5.703 -6.015,-5.703 -3.771,0 -6.038,1.932 -6.038,5.703 v 8.139 l -1.862,0.286 v 0.955 h 6.539 V 0.382 L -9.235,0.096 v -7.303 c 0,-3.103 0.715,-5.06 3.817,-5.06 3.055,0 3.985,1.933 3.985,5.013 V 0 l -1.861,0.382 v 0.955 h 5.06 V 0.382 Z" /></g><g
           transform="translate(406.5034,50.4404)"
           id="g188"><path
             id="path190"
             style="fill:#002c80;fill-opacity:1;fill-rule:nonzero;stroke:none"
             d="M 0,0 V 0.858 L 1.431,1.145 V 8.067 C 1.025,8.472 0.62,8.591 0.024,8.591 -1.933,8.591 -2.601,6.539 -2.601,4.51 V 1.145 L -1.17,0.858 V 0 h -5.464 v 0.858 l 1.454,0.287 v 7.16 l -1.454,0.262 v 0.909 l 3.888,0.453 V 7.686 L -2.65,7.662 c 0.693,1.573 1.959,2.362 3.484,2.362 2.148,0 3.176,-1.385 3.176,-3.533 V 1.145 L 5.464,0.858 V 0 Z" /></g><g
           transform="translate(415.9683,62.3018)"
           id="g192"><path
             id="path194"
             style="fill:#002c80;fill-opacity:1;fill-rule:nonzero;stroke:none"
             d="m 0,0 c -0.86,0 -1.576,0.715 -1.576,1.576 0,0.858 0.716,1.575 1.576,1.575 0.858,0 1.576,-0.717 1.576,-1.575 C 1.576,0.715 0.858,0 0,0 m -2.577,-11.862 v 0.861 l 1.454,0.286 v 7.158 l -1.454,0.263 v 0.908 l 4.034,0.548 v -8.877 l 1.454,-0.286 v -0.861 z" /></g><g
           transform="translate(429.6099,58.9844)"
           id="g196"><path
             id="path198"
             style="fill:#002c80;fill-opacity:1;fill-rule:nonzero;stroke:none"
             d="M 0,0 -3.89,-8.925 H -4.939 L -8.83,0 -10.072,0.286 v 0.859 h 5.419 V 0.286 l -1.48,-0.238 2.338,-5.729 2.434,5.729 -1.576,0.238 V 1.145 H 1.218 V 0.262 Z" /></g><g
           transform="translate(436.6167,59.5093)"
           id="g200"><path
             id="path202"
             style="fill:#002c80;fill-opacity:1;fill-rule:nonzero;stroke:none"
             d="M 0,0 C -1.479,0 -2.172,-1.433 -2.315,-2.935 H 1.861 C 1.861,-1.409 1.528,0 0,0 m -2.387,-4.01 v -0.286 c 0,-1.957 1.193,-3.747 3.054,-3.747 1.433,0 2.27,0.572 3.032,1.314 l 0.692,-0.79 C 3.175,-8.71 1.98,-9.356 0.071,-9.356 c -3.054,0 -5.201,1.909 -5.201,5.156 0,3.101 2.291,5.154 5.297,5.154 2.77,0 4.367,-1.693 4.367,-4.368 V -4.01 Z" /></g><g
           transform="translate(450.3608,57.6953)"
           id="g204"><path
             id="path206"
             style="fill:#002c80;fill-opacity:1;fill-rule:nonzero;stroke:none"
             d="M 0,0 -2.029,0.979 C -3.006,0.572 -3.555,-0.548 -3.555,-2.219 V -6.11 l 2.289,-0.286 V -7.254 H -7.59 v 0.858 l 1.456,0.286 V 1.049 L -7.59,1.313 v 0.906 l 3.843,0.453 V 0.405 l 0.119,-0.048 c 0.741,1.838 1.766,2.411 2.841,2.411 0.525,0 1.171,-0.215 1.526,-0.596 z" /></g><g
           transform="translate(455.9844,50.0347)"
           id="g208"><path
             id="path210"
             style="fill:#002c80;fill-opacity:1;fill-rule:nonzero;stroke:none"
             d="m 0,0 c -1.049,0 -1.886,0.31 -2.53,0.739 l -0.238,-0.62 h -0.813 l -0.095,3.366 0.908,0.072 c 0.286,-1.624 1.121,-2.506 2.744,-2.506 0.858,0 1.55,0.549 1.55,1.359 0,0.98 -0.668,1.242 -2.575,2.076 -1.361,0.597 -2.341,1.505 -2.341,2.959 0,1.862 1.528,2.984 3.39,2.984 0.954,0 1.647,-0.143 2.386,-0.572 l 0.286,0.572 H 3.435 L 3.342,7.254 H 2.434 C 2.267,8.639 1.695,9.476 0.286,9.476 c -0.858,0 -1.552,-0.455 -1.552,-1.314 0,-0.955 0.715,-1.194 2.41,-1.933 C 2.72,5.538 3.84,4.701 3.84,3.221 3.84,1.216 2.1,0 0,0" /></g><g
           transform="translate(464.3032,62.3018)"
           id="g212"><path
             id="path214"
             style="fill:#002c80;fill-opacity:1;fill-rule:nonzero;stroke:none"
             d="m 0,0 c -0.858,0 -1.576,0.715 -1.576,1.576 0,0.858 0.718,1.575 1.576,1.575 0.86,0 1.576,-0.717 1.576,-1.575 C 1.576,0.715 0.86,0 0,0 m -2.577,-11.862 v 0.861 l 1.456,0.286 v 7.158 l -1.456,0.263 v 0.908 l 4.034,0.548 v -8.877 l 1.456,-0.286 v -0.861 z" /></g><g
           transform="translate(472.2495,50.1538)"
           id="g216"><path
             id="path218"
             style="fill:#002c80;fill-opacity:1;fill-rule:nonzero;stroke:none"
             d="m 0,0 c -1.767,0 -2.839,1.194 -2.839,2.958 v 5.776 h -1.552 v 0.909 l 1.599,0.572 1.502,3.199 h 1.027 V 9.976 H 2.672 V 8.734 H -0.263 V 3.485 c 0,-1.337 0.406,-2.052 1.505,-2.052 0.715,0 1.12,0.214 1.551,0.691 L 3.882,1.456 C 3.332,0.765 1.719,0 0,0" /></g><g
           transform="translate(486.002,58.9844)"
           id="g220"><path
             id="path222"
             style="fill:#002c80;fill-opacity:1;fill-rule:nonzero;stroke:none"
             d="m 0,0 -3.795,-9.116 -1.908,-5.561 h -2.34 L -5.011,-8.734 -8.83,0 -10.024,0.286 v 0.859 h 5.419 V 0.286 l -1.528,-0.238 2.386,-5.967 2.386,5.967 -1.526,0.238 V 1.145 H 1.194 V 0.262 Z" /></g><g
           transform="translate(316.7588,25.4722)"
           id="g224"><path
             id="path226"
             style="fill:#002c80;fill-opacity:1;fill-rule:nonzero;stroke:none"
             d="m 0,0 v 0.956 l 1.957,0.286 v 5.8 h -6.682 v -5.8 L -2.768,0.956 V 0 h -6.634 v 0.956 l 1.86,0.286 v 12.219 l -1.86,0.287 v 0.953 h 6.634 V 13.748 L -4.725,13.461 V 8.282 h 6.682 v 5.179 L 0,13.748 v 0.953 H 6.634 V 13.748 L 4.774,13.461 V 1.242 L 6.634,0.956 V 0 Z" /></g><g
           transform="translate(329.832,34.5415)"
           id="g228"><path
             id="path230"
             style="fill:#002c80;fill-opacity:1;fill-rule:nonzero;stroke:none"
             d="M 0,0 C -1.479,0 -2.172,-1.433 -2.315,-2.935 H 1.862 C 1.862,-1.409 1.528,0 0,0 m -2.386,-4.01 v -0.286 c 0,-1.957 1.192,-3.747 3.053,-3.747 1.433,0 2.27,0.572 3.033,1.314 l 0.691,-0.79 c -1.216,-1.191 -2.41,-1.835 -4.32,-1.835 -3.053,0 -5.201,1.907 -5.201,5.154 0,3.103 2.291,5.156 5.297,5.156 2.77,0 4.367,-1.695 4.367,-4.368 V -4.01 Z" /></g><g
           transform="translate(341.7319,30.3413)"
           id="g232"><path
             id="path234"
             style="fill:#002c80;fill-opacity:1;fill-rule:nonzero;stroke:none"
             d="m 0,0 -1.552,-0.31 c -1.025,-0.19 -1.719,-0.789 -1.719,-1.838 0,-0.908 0.765,-1.456 1.671,-1.456 0.575,0 1.195,0.31 1.6,0.717 z m 2.243,-5.156 c -1.027,0 -1.766,0.527 -2.1,1.432 -0.715,-0.691 -1.719,-1.432 -2.863,-1.432 -1.576,0 -2.889,1.027 -2.889,2.603 0,2.053 1.623,2.792 3.556,3.149 L 0,0.954 V 2.243 C 0,3.34 -0.429,3.915 -1.671,3.915 -2.792,3.915 -3.7,3.294 -4.367,2.386 l -0.837,0.908 c 1.123,1.312 2.293,1.908 4.105,1.908 2.389,0 3.676,-0.978 3.676,-2.982 v -4.558 c 0,-1.052 0.429,-1.29 0.906,-1.29 0.36,0 0.622,0.095 0.836,0.262 l 0.31,-0.691 C 4.033,-4.677 3.102,-5.156 2.243,-5.156" /></g><g
           transform="translate(347.2144,25.4722)"
           id="g236"><path
             id="path238"
             style="fill:#002c80;fill-opacity:1;fill-rule:nonzero;stroke:none"
             d="M 0,0 V 0.86 L 1.456,1.146 V 14.463 L 0,14.725 v 0.908 l 4.033,0.406 V 1.146 L 5.49,0.86 V 0 Z" /></g><g
           transform="translate(358.228,25.1865)"
           id="g240"><path
             id="path242"
             style="fill:#002c80;fill-opacity:1;fill-rule:nonzero;stroke:none"
             d="m 0,0 c -1.767,0 -2.842,1.194 -2.842,2.958 v 5.776 h -1.549 v 0.909 l 1.599,0.571 1.502,3.198 h 1.027 V 9.976 H 2.672 V 8.734 H -0.263 V 3.483 c 0,-1.336 0.406,-2.051 1.505,-2.051 0.715,0 1.12,0.215 1.55,0.692 L 3.268,1.456 C 2.72,0.763 1.719,0 0,0" /></g><g
           transform="translate(369.0298,25.4722)"
           id="g244"><path
             id="path246"
             style="fill:#002c80;fill-opacity:1;fill-rule:nonzero;stroke:none"
             d="M 0,0 V 0.86 L 1.432,1.146 V 8.067 C 1.025,8.472 0.62,8.591 0.023,8.591 -1.934,8.591 -2.601,6.539 -2.601,4.51 V 1.146 L -1.17,0.86 V 0 h -5.465 v 0.86 l 1.455,0.286 v 13.317 l -1.455,0.262 v 0.908 l 4.034,0.406 V 7.853 l 0.048,-0.024 c 0.715,1.408 1.814,2.195 3.387,2.195 2.148,0 3.175,-1.385 3.175,-3.533 V 1.146 L 5.464,0.86 V 0 Z" /></g><g
           transform="translate(390.2158,25.0908)"
           id="g248"><path
             id="path250"
             style="fill:#002c80;fill-opacity:1;fill-rule:nonzero;stroke:none"
             d="m 0,0 c -4.534,0 -7.638,3.102 -7.638,7.638 0,4.725 3.342,7.828 8.019,7.828 1.529,0 2.723,-0.216 3.939,-0.717 l 0.286,0.717 H 5.681 L 5.442,10.763 H 4.391 l -0.405,2.052 c -0.98,1.004 -2.219,1.409 -3.557,1.409 -3.533,0 -5.034,-2.841 -5.034,-6.419 0,-3.39 1.718,-6.468 5.105,-6.468 1.862,0 3.319,0.763 4.535,2.101 L 5.8,2.458 C 4.296,0.787 2.434,0 0,0" /></g><g
           transform="translate(402.6172,34.5415)"
           id="g252"><path
             id="path254"
             style="fill:#002c80;fill-opacity:1;fill-rule:nonzero;stroke:none"
             d="M 0,0 C -1.48,0 -2.172,-1.433 -2.315,-2.935 H 1.862 C 1.862,-1.409 1.526,0 0,0 m -2.386,-4.01 v -0.286 c 0,-1.957 1.192,-3.747 3.053,-3.747 1.433,0 2.268,0.572 3.033,1.314 l 0.691,-0.79 c -1.216,-1.191 -2.41,-1.835 -4.32,-1.835 -3.053,0 -5.203,1.907 -5.203,5.154 0,3.103 2.291,5.156 5.299,5.156 2.768,0 4.367,-1.695 4.367,-4.368 V -4.01 Z" /></g><g
           transform="translate(415.1621,25.4722)"
           id="g256"><path
             id="path258"
             style="fill:#002c80;fill-opacity:1;fill-rule:nonzero;stroke:none"
             d="M 0,0 V 0.86 L 1.433,1.146 V 8.067 C 1.025,8.472 0.62,8.591 0.024,8.591 -1.933,8.591 -2.601,6.539 -2.601,4.51 V 1.146 L -1.17,0.86 V 0 h -5.464 v 0.86 l 1.456,0.286 v 7.16 l -1.456,0.262 v 0.908 l 3.89,0.453 V 7.686 l 0.096,-0.024 c 0.691,1.575 1.957,2.362 3.482,2.362 2.148,0 3.176,-1.385 3.176,-3.533 V 1.146 L 5.466,0.86 V 0 Z" /></g><g
           transform="translate(426.0835,25.1865)"
           id="g260"><path
             id="path262"
             style="fill:#002c80;fill-opacity:1;fill-rule:nonzero;stroke:none"
             d="m 0,0 c -1.767,0 -2.839,1.194 -2.839,2.958 v 5.776 h -1.552 v 0.909 l 1.597,0.571 1.504,3.198 h 1.027 V 9.976 H 2.672 V 8.734 H -0.263 V 3.483 c 0,-1.336 0.406,-2.051 1.505,-2.051 0.715,0 1.12,0.215 1.55,0.692 L 3.271,1.456 C 2.72,0.763 1.719,0 0,0" /></g><g
           transform="translate(438.0303,32.728)"
           id="g264"><path
             id="path266"
             style="fill:#002c80;fill-opacity:1;fill-rule:nonzero;stroke:none"
             d="M 0,0 -2.028,0.978 C -3.008,0.572 -3.557,-0.548 -3.557,-2.219 V -6.11 l 2.291,-0.286 v -0.86 H -7.59 v 0.86 l 1.457,0.286 V 1.051 L -7.59,1.312 v 0.907 l 3.843,0.453 V 0.405 l 0.119,-0.047 c 0.741,1.838 1.767,2.41 2.839,2.41 0.527,0 1.171,-0.215 1.528,-0.596 z" /></g><g
           transform="translate(444.2959,34.5415)"
           id="g268"><path
             id="path270"
             style="fill:#002c80;fill-opacity:1;fill-rule:nonzero;stroke:none"
             d="M 0,0 C -1.48,0 -2.172,-1.433 -2.315,-2.935 H 1.861 C 1.861,-1.409 1.528,0 0,0 m -2.387,-4.01 v -0.286 c 0,-1.957 1.193,-3.747 3.054,-3.747 1.433,0 2.268,0.572 3.032,1.314 l 0.692,-0.79 C 3.175,-8.71 1.98,-9.354 0.071,-9.354 c -3.053,0 -5.203,1.907 -5.203,5.154 0,3.103 2.293,5.156 5.299,5.156 2.768,0 4.367,-1.695 4.367,-4.368 V -4.01 Z" /></g></g></g></g></svg>